<svg width="676" height="778" viewBox="0 0 676 778" fill="none" xmlns="http://www.w3.org/2000/svg">
<g clip-path="url(#clip0_19_2)">
<path d="M14.375 195.85L14 570.201L338 757.5L662.375 570.85V195.85L338.76 9L14.375 195.85Z" fill="url(#paint0_radial_19_2)" stroke="#7E4D6A" stroke-width="22"/>
<g filter="url(#filter0_d_19_2)">
<rect x="156" y="176" width="363.764" height="255.822" fill="#E5E5E5"/>
<rect x="163.5" y="183.5" width="348.764" height="240.822" stroke="white" stroke-width="15"/>
</g>
<path d="M198.097 176V431.822M255.306 176V431.822M311.436 176V431.822M367.566 176V431.822M423.695 176V431.822M480.905 176V431.822M158.159 201.906L517.605 201.929M158.159 252.094L517.605 252.115M158.159 302.281L517.605 302.303M158.159 352.469L517.605 352.49M158.159 402.656L517.605 402.678" stroke="white" stroke-width="3"/>
<line x1="491.767" y1="240.244" x2="354.681" y2="336.312" stroke="#525252" stroke-width="4"/>
<line x1="354.092" y1="336.954" x2="299.042" y2="263.553" stroke="#525252" stroke-width="4"/>
<line x1="301.804" y1="263.981" x2="180.91" y2="350.334" stroke="#525252" stroke-width="4"/>
<circle cx="490.62" cy="238.606" r="12.953" fill="#000643"/>
<circle cx="422.616" cy="286.101" r="12.953" fill="#002452"/>
<circle cx="353.533" cy="334.674" r="12.953" fill="#164F86"/>
<circle cx="300.642" cy="268.83" r="12.953" fill="#0365C0"/>
<circle cx="240.195" cy="305.53" r="12.953" fill="#51A7F9"/>
<circle cx="184.065" cy="348.707" r="12.953" fill="#A8D6FF"/>
<g filter="url(#filter1_d_19_2)">
<path d="M150.616 491.528C154.744 491.528 158.536 492.2 161.992 493.544C165.448 494.888 168.424 496.616 170.92 498.728C173.512 500.744 175.528 502.856 176.968 505.064C178.408 507.272 179.128 509.192 179.128 510.824L175.816 510.968V499.448C175.816 497.432 176.488 495.704 177.832 494.264C179.176 492.824 180.904 492.104 183.016 492.104C185.128 492.104 186.856 492.824 188.2 494.264C189.544 495.608 190.216 497.336 190.216 499.448V562.952C190.216 571.112 188.488 577.736 185.032 582.824C181.576 588.008 176.968 591.8 171.208 594.2C165.544 596.6 159.304 597.8 152.488 597.8C150.088 597.8 147.256 597.464 143.992 596.792C140.728 596.216 137.704 595.496 134.92 594.632C132.232 593.768 130.36 592.904 129.304 592.04C127.096 590.888 125.608 589.544 124.84 588.008C124.168 586.472 124.168 584.936 124.84 583.4C125.8 581.288 127.096 579.992 128.728 579.512C130.36 579.032 132.232 579.176 134.344 579.944C135.304 580.232 136.792 580.76 138.808 581.528C140.824 582.296 143.08 582.968 145.576 583.544C148.072 584.216 150.424 584.552 152.632 584.552C160.312 584.552 166.072 582.776 169.912 579.224C173.848 575.672 175.816 570.824 175.816 564.68V551.72L177.4 552.728C177.112 554.744 176.2 556.808 174.664 558.92C173.224 560.936 171.304 562.808 168.904 564.536C166.504 566.264 163.72 567.704 160.552 568.856C157.48 569.912 154.312 570.44 151.048 570.44C144.232 570.44 138.136 568.76 132.76 565.4C127.384 561.944 123.112 557.288 119.944 551.432C116.776 545.48 115.192 538.664 115.192 530.984C115.192 523.304 116.776 516.536 119.944 510.68C123.112 504.728 127.336 500.072 132.616 496.712C137.992 493.256 143.992 491.528 150.616 491.528ZM152.776 504.776C148.072 504.776 143.944 505.928 140.392 508.232C136.84 510.536 134.056 513.656 132.04 517.592C130.024 521.528 129.016 525.992 129.016 530.984C129.016 535.976 130.024 540.44 132.04 544.376C134.056 548.312 136.84 551.432 140.392 553.736C143.944 556.04 148.072 557.192 152.776 557.192C157.48 557.192 161.608 556.088 165.16 553.88C168.712 551.576 171.496 548.456 173.512 544.52C175.528 540.488 176.536 535.976 176.536 530.984C176.536 525.992 175.528 521.528 173.512 517.592C171.496 513.56 168.712 510.44 165.16 508.232C161.608 505.928 157.48 504.776 152.776 504.776ZM241.741 491.528C245.869 491.528 249.661 492.2 253.117 493.544C256.573 494.888 259.549 496.616 262.045 498.728C264.637 500.744 266.653 502.856 268.093 505.064C269.533 507.272 270.253 509.192 270.253 510.824L266.941 510.968V499.448C266.941 497.432 267.613 495.704 268.957 494.264C270.301 492.824 272.029 492.104 274.141 492.104C276.253 492.104 277.981 492.824 279.325 494.264C280.669 495.608 281.341 497.336 281.341 499.448V562.952C281.341 571.112 279.613 577.736 276.157 582.824C272.701 588.008 268.093 591.8 262.333 594.2C256.669 596.6 250.429 597.8 243.613 597.8C241.213 597.8 238.381 597.464 235.117 596.792C231.853 596.216 228.829 595.496 226.045 594.632C223.357 593.768 221.485 592.904 220.429 592.04C218.221 590.888 216.733 589.544 215.965 588.008C215.293 586.472 215.293 584.936 215.965 583.4C216.925 581.288 218.221 579.992 219.853 579.512C221.485 579.032 223.357 579.176 225.469 579.944C226.429 580.232 227.917 580.76 229.933 581.528C231.949 582.296 234.205 582.968 236.701 583.544C239.197 584.216 241.549 584.552 243.757 584.552C251.437 584.552 257.197 582.776 261.037 579.224C264.973 575.672 266.941 570.824 266.941 564.68V551.72L268.525 552.728C268.237 554.744 267.325 556.808 265.789 558.92C264.349 560.936 262.429 562.808 260.029 564.536C257.629 566.264 254.845 567.704 251.677 568.856C248.605 569.912 245.437 570.44 242.173 570.44C235.357 570.44 229.261 568.76 223.885 565.4C218.509 561.944 214.237 557.288 211.069 551.432C207.901 545.48 206.317 538.664 206.317 530.984C206.317 523.304 207.901 516.536 211.069 510.68C214.237 504.728 218.461 500.072 223.741 496.712C229.117 493.256 235.117 491.528 241.741 491.528ZM243.901 504.776C239.197 504.776 235.069 505.928 231.517 508.232C227.965 510.536 225.181 513.656 223.165 517.592C221.149 521.528 220.141 525.992 220.141 530.984C220.141 535.976 221.149 540.44 223.165 544.376C225.181 548.312 227.965 551.432 231.517 553.736C235.069 556.04 239.197 557.192 243.901 557.192C248.605 557.192 252.733 556.088 256.285 553.88C259.837 551.576 262.621 548.456 264.637 544.52C266.653 540.488 267.661 535.976 267.661 530.984C267.661 525.992 266.653 521.528 264.637 517.592C262.621 513.56 259.837 510.44 256.285 508.232C252.733 505.928 248.605 504.776 243.901 504.776ZM303.058 492.536C304.498 492.536 305.842 492.92 307.09 493.688C308.434 494.456 309.394 495.608 309.97 497.144L332.578 549.416L329.842 550.712L352.738 497.288C354.082 494.12 356.242 492.584 359.218 492.68C361.138 492.68 362.722 493.304 363.97 494.552C365.314 495.704 365.986 497.24 365.986 499.16C365.986 499.736 365.89 500.36 365.698 501.032C365.506 501.608 365.266 502.184 364.978 502.76L337.618 564.392C336.37 567.272 334.306 568.808 331.426 569C329.986 569.192 328.546 568.904 327.106 568.136C325.762 567.272 324.706 566.024 323.938 564.392L296.722 502.76C296.53 502.376 296.338 501.896 296.146 501.32C295.954 500.648 295.858 499.88 295.858 499.016C295.858 497.576 296.482 496.136 297.73 494.696C299.074 493.256 300.85 492.536 303.058 492.536ZM394.179 561.656C394.179 563.768 393.507 565.544 392.163 566.984C390.819 568.328 389.091 569 386.979 569C384.963 569 383.235 568.328 381.795 566.984C380.451 565.544 379.779 563.768 379.779 561.656V500.024C379.779 497.912 380.451 496.184 381.795 494.84C383.235 493.4 384.963 492.68 386.979 492.68C389.091 492.68 390.819 493.4 392.163 494.84C393.507 496.184 394.179 497.912 394.179 500.024V561.656ZM386.835 483.176C384.051 483.176 382.035 482.696 380.787 481.736C379.539 480.68 378.915 478.952 378.915 476.552V474.248C378.915 471.848 379.587 470.168 380.931 469.208C382.275 468.248 384.291 467.768 386.979 467.768C389.859 467.768 391.923 468.296 393.171 469.352C394.419 470.312 395.043 471.944 395.043 474.248V476.552C395.043 479.048 394.371 480.776 393.027 481.736C391.779 482.696 389.715 483.176 386.835 483.176ZM448.829 570.44C440.861 570.44 433.949 568.808 428.093 565.544C422.237 562.184 417.677 557.624 414.413 551.864C411.245 546.008 409.661 539.336 409.661 531.848C409.661 523.4 411.341 516.2 414.701 510.248C418.157 504.2 422.621 499.592 428.093 496.424C433.565 493.16 439.373 491.528 445.517 491.528C450.221 491.528 454.685 492.488 458.909 494.408C463.133 496.232 466.877 498.824 470.141 502.184C473.501 505.448 476.141 509.336 478.061 513.848C479.981 518.264 480.989 523.112 481.085 528.392C480.989 530.312 480.221 531.896 478.781 533.144C477.341 534.392 475.661 535.016 473.741 535.016H417.725L414.269 522.776H468.413L465.677 525.368V521.768C465.485 518.408 464.381 515.48 462.365 512.984C460.349 510.392 457.853 508.424 454.877 507.08C451.901 505.64 448.781 504.92 445.517 504.92C442.637 504.92 439.853 505.4 437.165 506.36C434.573 507.224 432.221 508.664 430.109 510.68C428.093 512.696 426.461 515.384 425.213 518.744C424.061 522.008 423.485 526.088 423.485 530.984C423.485 536.264 424.589 540.872 426.797 544.808C429.005 548.744 431.981 551.816 435.725 554.024C439.469 556.136 443.597 557.192 448.109 557.192C451.661 557.192 454.589 556.856 456.893 556.184C459.197 555.416 461.117 554.504 462.653 553.448C464.189 552.392 465.533 551.384 466.685 550.424C468.125 549.56 469.565 549.128 471.005 549.128C472.733 549.128 474.173 549.752 475.325 551C476.477 552.152 477.053 553.544 477.053 555.176C477.053 557.288 475.997 559.208 473.885 560.936C471.293 563.432 467.693 565.64 463.085 567.56C458.573 569.48 453.821 570.44 448.829 570.44ZM585.633 492.536C587.457 492.536 589.041 493.256 590.385 494.696C591.825 496.04 592.545 497.816 592.545 500.024C592.545 500.504 592.497 500.984 592.401 501.464C592.305 501.944 592.161 502.376 591.969 502.76L569.937 564.392C569.361 566.024 568.353 567.272 566.913 568.136C565.473 568.904 563.985 569.192 562.449 569C559.665 568.808 557.601 567.272 556.257 564.392L539.985 521.192L543.297 521.48L528.321 564.392C526.977 567.272 524.913 568.808 522.129 569C520.689 569.192 519.201 568.904 517.665 568.136C516.225 567.272 515.217 566.024 514.641 564.392L492.465 502.76C492.081 501.896 491.889 500.984 491.889 500.024C491.889 498.008 492.513 496.28 493.761 494.84C495.105 493.304 496.881 492.536 499.089 492.536C500.625 492.536 501.969 492.92 503.121 493.688C504.369 494.456 505.233 495.608 505.713 497.144L524.145 549.128L520.833 548.84L535.809 509.528C537.057 506.552 539.265 505.064 542.433 505.064C544.161 505.064 545.505 505.448 546.465 506.216C547.425 506.984 548.193 508.088 548.769 509.528L564.033 548.984L560.145 549.416L578.721 497.144C579.681 494.072 581.985 492.536 585.633 492.536Z" fill="#030303"/>
</g>
</g>
<defs>
<filter id="filter0_d_19_2" x="156" y="176" width="380.764" height="272.822" filterUnits="userSpaceOnUse" color-interpolation-filters="sRGB">
<feFlood flood-opacity="0" result="BackgroundImageFix"/>
<feColorMatrix in="SourceAlpha" type="matrix" values="0 0 0 0 0 0 0 0 0 0 0 0 0 0 0 0 0 0 127 0" result="hardAlpha"/>
<feMorphology radius="2" operator="dilate" in="SourceAlpha" result="effect1_dropShadow_19_2"/>
<feOffset dx="9" dy="9"/>
<feGaussianBlur stdDeviation="3"/>
<feComposite in2="hardAlpha" operator="out"/>
<feColorMatrix type="matrix" values="0 0 0 0 0 0 0 0 0 0 0 0 0 0 0 0 0 0 0.35 0"/>
<feBlend mode="normal" in2="BackgroundImageFix" result="effect1_dropShadow_19_2"/>
<feBlend mode="normal" in="SourceGraphic" in2="effect1_dropShadow_19_2" result="shape"/>
</filter>
<filter id="filter1_d_19_2" x="115.192" y="467.768" width="485.353" height="138.032" filterUnits="userSpaceOnUse" color-interpolation-filters="sRGB">
<feFlood flood-opacity="0" result="BackgroundImageFix"/>
<feColorMatrix in="SourceAlpha" type="matrix" values="0 0 0 0 0 0 0 0 0 0 0 0 0 0 0 0 0 0 127 0" result="hardAlpha"/>
<feOffset dx="4" dy="4"/>
<feGaussianBlur stdDeviation="2"/>
<feComposite in2="hardAlpha" operator="out"/>
<feColorMatrix type="matrix" values="0 0 0 0 0 0 0 0 0 0 0 0 0 0 0 0 0 0 0.25 0"/>
<feBlend mode="normal" in2="BackgroundImageFix" result="effect1_dropShadow_19_2"/>
<feBlend mode="normal" in="SourceGraphic" in2="effect1_dropShadow_19_2" result="shape"/>
</filter>
<radialGradient id="paint0_radial_19_2" cx="0" cy="0" r="1" gradientUnits="userSpaceOnUse" gradientTransform="translate(331.5 402.5) rotate(88.9525) scale(355.559 379.882)">
<stop stop-color="#FFFBFB"/>
<stop offset="0.996284" stop-color="#D1D0D4"/>
</radialGradient>
<clipPath id="clip0_19_2">
<rect width="676" height="778" fill="white"/>
</clipPath>
</defs>
</svg>
